<mxfile host="Electron" agent="Mozilla/5.0 (Windows NT 10.0; Win64; x64) AppleWebKit/537.36 (KHTML, like Gecko) draw.io/26.0.4 Chrome/128.0.6613.186 Electron/32.2.5 Safari/537.36" version="26.0.4">
  <diagram name="design" id="rDIhAPUh0TKD0qGZyNmT">
    <mxGraphModel dx="2474" dy="1236" grid="1" gridSize="10" guides="1" tooltips="1" connect="1" arrows="1" fold="1" page="0" pageScale="1" pageWidth="850" pageHeight="1100" math="0" shadow="0">
      <root>
        <mxCell id="0" />
        <mxCell id="2" value="VBackground-1" parent="0" />
        <UserObject label="" tags="Background" id="6CRT4xg3u7urD81Ywov--217">
          <mxCell style="vsdxID=1746;fillColor=none;gradientColor=none;shape=stencil(nZBLDsIwEENPM1sUMoILlHIBThCRQEaEpErD9/SkNUhVFyy6G9vPGsnETe9N50irvuR0cQ+xxRPvSGuJ3mUp9SJuiZtTyu6c0y1a6M5UUqvRcRad9UBrZfLxIG8Hb7viDWz0ruk+/HsiVYhe376C3gMNEifoL1wE/0EXgrP39RgXwVYSAgad5vMFq4X1uf0A);dashed=1;strokeColor=#0078d4;strokeWidth=2;points=[];labelBackgroundColor=none;rounded=1;html=1;whiteSpace=wrap;pointerEvents=0;align=center;verticalAlign=top;fontFamily=Helvetica;fontSize=12;fontColor=default;" parent="2" vertex="1">
            <mxGeometry x="334" y="115" width="270" height="274" as="geometry" />
          </mxCell>
        </UserObject>
        <mxCell id="XbH_MaMN36dM_GxdqdH8-249" style="edgeStyle=orthogonalEdgeStyle;rounded=0;orthogonalLoop=1;jettySize=auto;html=1;" parent="2" source="mUVsqnrelzEvZ6SazAHg-224" edge="1">
          <mxGeometry relative="1" as="geometry">
            <mxPoint x="465" y="-110" as="targetPoint" />
          </mxGeometry>
        </mxCell>
        <mxCell id="mUVsqnrelzEvZ6SazAHg-224" value="Boomi Container App" style="image;aspect=fixed;html=1;points=[];align=center;fontSize=12;image=img/lib/azure2/containers/Kubernetes_Services.svg;" parent="2" vertex="1">
          <mxGeometry x="431" y="155" width="68" height="60" as="geometry" />
        </mxCell>
        <mxCell id="lYQGyrDZ05sSrZhLJFXv-241" style="edgeStyle=orthogonalEdgeStyle;rounded=0;orthogonalLoop=1;jettySize=auto;html=1;" parent="2" source="6CRT4xg3u7urD81Ywov--221" target="lYQGyrDZ05sSrZhLJFXv-219" edge="1">
          <mxGeometry relative="1" as="geometry" />
        </mxCell>
        <mxCell id="6CRT4xg3u7urD81Ywov--221" value="Engineer" style="sketch=0;aspect=fixed;pointerEvents=1;shadow=0;dashed=0;html=1;strokeColor=none;labelPosition=center;verticalLabelPosition=bottom;verticalAlign=top;align=center;shape=mxgraph.mscae.enterprise.user_permissions;fillColor=#0078D7;" parent="2" vertex="1">
          <mxGeometry x="-415" y="203" width="47" height="50" as="geometry" />
        </mxCell>
        <mxCell id="6CRT4xg3u7urD81Ywov--225" value="Azure Storage Account" style="image;aspect=fixed;html=1;points=[];align=center;fontSize=12;image=img/lib/azure2/storage/Storage_Accounts.svg;" parent="2" vertex="1">
          <mxGeometry x="431" y="307" width="65" height="52" as="geometry" />
        </mxCell>
        <mxCell id="6CRT4xg3u7urD81Ywov--226" style="edgeStyle=orthogonalEdgeStyle;rounded=0;orthogonalLoop=1;jettySize=auto;html=1;startArrow=classic;startFill=1;" parent="2" target="6CRT4xg3u7urD81Ywov--225" edge="1">
          <mxGeometry relative="1" as="geometry">
            <mxPoint x="464" y="235" as="sourcePoint" />
            <mxPoint x="464.45000000000005" y="302.14" as="targetPoint" />
            <Array as="points">
              <mxPoint x="464" y="295" />
              <mxPoint x="464" y="295" />
            </Array>
          </mxGeometry>
        </mxCell>
        <mxCell id="6CRT4xg3u7urD81Ywov--227" value="Connected by NFS" style="edgeLabel;html=1;align=center;verticalAlign=middle;resizable=0;points=[];" parent="6CRT4xg3u7urD81Ywov--226" vertex="1" connectable="0">
          <mxGeometry x="-0.0411" y="-2" relative="1" as="geometry">
            <mxPoint as="offset" />
          </mxGeometry>
        </mxCell>
        <UserObject label="&lt;div style=&quot;text-align: left;&quot;&gt;&lt;font color=&quot;#172b4d&quot; face=&quot;-apple-system, BlinkMacSystemFont, Segoe UI, Roboto, Oxygen, Ubuntu, Fira Sans, Droid Sans, Helvetica Neue, sans-serif&quot;&gt;&lt;span style=&quot;letter-spacing: -0.08px; white-space-collapse: preserve; background-color: rgb(255, 255, 255);&quot;&gt;VNET&lt;/span&gt;&lt;/font&gt;&lt;/div&gt;" tags="Background" id="XhIdc0XmWjApS4isvewY-217">
          <mxCell style="verticalAlign=middle;align=center;overflow=width;vsdxID=1747;fillColor=none;gradientColor=none;shape=stencil(nZBLDoAgDERP0z3SIyjew0SURgSD+Lu9kMZoXLhwN9O+tukAlrNpJg1SzDH4QW/URgNYgZTkjA4UkwJUgGXng+6DX1zLfmoymdXo17xh5zmRJ6Q42BWCfc2oJfdAr+Yv+AP9Cb7OJ3H/2JG1HNGz/84klThPVCc=);strokeColor=none;points=[];labelBackgroundColor=none;rounded=0;html=1;whiteSpace=wrap;fontSize=16;" parent="2" vertex="1">
            <mxGeometry x="354" y="100" width="157" height="25" as="geometry" />
          </mxCell>
        </UserObject>
        <mxCell id="Wtejnd3A24O5zBVkF6I7-222" value="" style="aspect=fixed;html=1;points=[];align=center;image;fontSize=12;image=img/lib/azure2/monitor/SAP_Azure_Monitor.svg;" parent="2" vertex="1">
          <mxGeometry x="658" y="250" width="55" height="44" as="geometry" />
        </mxCell>
        <mxCell id="Wtejnd3A24O5zBVkF6I7-223" value="" style="image;aspect=fixed;html=1;points=[];align=center;fontSize=12;image=img/lib/azure2/devops/Application_Insights.svg;" parent="2" vertex="1">
          <mxGeometry x="658" y="160" width="44" height="63" as="geometry" />
        </mxCell>
        <mxCell id="6CRT4xg3u7urD81Ywov--224" value="" style="image;aspect=fixed;html=1;points=[];align=center;fontSize=12;image=img/lib/azure2/management_governance/Log_Analytics_Workspaces.svg;" parent="2" vertex="1">
          <mxGeometry x="658" y="320" width="64" height="64" as="geometry" />
        </mxCell>
        <UserObject label="" tags="Background" id="Wtejnd3A24O5zBVkF6I7-228">
          <mxCell style="vsdxID=1746;fillColor=none;gradientColor=none;shape=stencil(nZBLDsIwEENPM1sUMoILlHIBThCRQEaEpErD9/SkNUhVFyy6G9vPGsnETe9N50irvuR0cQ+xxRPvSGuJ3mUp9SJuiZtTyu6c0y1a6M5UUqvRcRad9UBrZfLxIG8Hb7viDWz0ruk+/HsiVYhe376C3gMNEifoL1wE/0EXgrP39RgXwVYSAgad5vMFq4X1uf0A);dashed=1;strokeColor=#0078d4;strokeWidth=2;points=[];labelBackgroundColor=none;rounded=1;html=1;whiteSpace=wrap;pointerEvents=0;align=center;verticalAlign=top;fontFamily=Helvetica;fontSize=12;fontColor=default;" parent="2" vertex="1">
            <mxGeometry x="630" y="115" width="110" height="275" as="geometry" />
          </mxCell>
        </UserObject>
        <UserObject label="&lt;div style=&quot;text-align: left;&quot;&gt;&lt;font color=&quot;#172b4d&quot; face=&quot;-apple-system, BlinkMacSystemFont, Segoe UI, Roboto, Oxygen, Ubuntu, Fira Sans, Droid Sans, Helvetica Neue, sans-serif&quot;&gt;&lt;span style=&quot;letter-spacing: -0.08px; white-space-collapse: preserve; background-color: rgb(255, 255, 255);&quot;&gt;Monitoring&lt;/span&gt;&lt;/font&gt;&lt;/div&gt;" tags="Background" id="Wtejnd3A24O5zBVkF6I7-229">
          <mxCell style="verticalAlign=middle;align=center;overflow=width;vsdxID=1747;fillColor=none;gradientColor=none;shape=stencil(nZBLDoAgDERP0z3SIyjew0SURgSD+Lu9kMZoXLhwN9O+tukAlrNpJg1SzDH4QW/URgNYgZTkjA4UkwJUgGXng+6DX1zLfmoymdXo17xh5zmRJ6Q42BWCfc2oJfdAr+Yv+AP9Cb7OJ3H/2JG1HNGz/84klThPVCc=);strokeColor=none;points=[];labelBackgroundColor=none;rounded=0;html=1;whiteSpace=wrap;fontSize=16;" parent="2" vertex="1">
            <mxGeometry x="1060" y="1150" width="157" height="25" as="geometry" />
          </mxCell>
        </UserObject>
        <UserObject label="" tags="Background" id="Wtejnd3A24O5zBVkF6I7-230">
          <mxCell style="vsdxID=1746;fillColor=none;gradientColor=none;shape=stencil(nZBLDsIwEENPM1sUMoILlHIBThCRQEaEpErD9/SkNUhVFyy6G9vPGsnETe9N50irvuR0cQ+xxRPvSGuJ3mUp9SJuiZtTyu6c0y1a6M5UUqvRcRad9UBrZfLxIG8Hb7viDWz0ruk+/HsiVYhe376C3gMNEifoL1wE/0EXgrP39RgXwVYSAgad5vMFq4X1uf0A);dashed=1;strokeColor=#0078d4;strokeWidth=2;points=[];labelBackgroundColor=none;rounded=1;html=1;whiteSpace=wrap;pointerEvents=0;align=center;verticalAlign=top;fontFamily=Helvetica;fontSize=12;fontColor=default;" parent="2" vertex="1">
            <mxGeometry x="303" y="80" width="457" height="330" as="geometry" />
          </mxCell>
        </UserObject>
        <UserObject label="&lt;div style=&quot;text-align: left;&quot;&gt;&lt;font color=&quot;#172b4d&quot; face=&quot;-apple-system, BlinkMacSystemFont, Segoe UI, Roboto, Oxygen, Ubuntu, Fira Sans, Droid Sans, Helvetica Neue, sans-serif&quot;&gt;&lt;span style=&quot;letter-spacing: -0.08px; white-space-collapse: preserve; background-color: rgb(255, 255, 255);&quot;&gt;Resource Group&lt;/span&gt;&lt;/font&gt;&lt;/div&gt;" tags="Background" id="Wtejnd3A24O5zBVkF6I7-231">
          <mxCell style="verticalAlign=middle;align=center;overflow=width;vsdxID=1747;fillColor=none;gradientColor=none;shape=stencil(nZBLDoAgDERP0z3SIyjew0SURgSD+Lu9kMZoXLhwN9O+tukAlrNpJg1SzDH4QW/URgNYgZTkjA4UkwJUgGXng+6DX1zLfmoymdXo17xh5zmRJ6Q42BWCfc2oJfdAr+Yv+AP9Cb7OJ3H/2JG1HNGz/84klThPVCc=);strokeColor=none;points=[];labelBackgroundColor=none;rounded=0;html=1;whiteSpace=wrap;fontSize=16;" parent="2" vertex="1">
            <mxGeometry x="313" y="64" width="157" height="25" as="geometry" />
          </mxCell>
        </UserObject>
        <UserObject label="" tags="Background" id="Wtejnd3A24O5zBVkF6I7-232">
          <mxCell style="vsdxID=1746;fillColor=none;gradientColor=none;shape=stencil(nZBLDsIwEENPM1sUMoILlHIBThCRQEaEpErD9/SkNUhVFyy6G9vPGsnETe9N50irvuR0cQ+xxRPvSGuJ3mUp9SJuiZtTyu6c0y1a6M5UUqvRcRad9UBrZfLxIG8Hb7viDWz0ruk+/HsiVYhe376C3gMNEifoL1wE/0EXgrP39RgXwVYSAgad5vMFq4X1uf0A);dashed=1;strokeColor=#0078d4;strokeWidth=2;points=[];labelBackgroundColor=none;rounded=1;html=1;whiteSpace=wrap;pointerEvents=0;align=center;verticalAlign=top;fontFamily=Helvetica;fontSize=12;fontColor=default;" parent="2" vertex="1">
            <mxGeometry x="280" y="50" width="500" height="380" as="geometry" />
          </mxCell>
        </UserObject>
        <UserObject label="&lt;div style=&quot;text-align: left;&quot;&gt;&lt;font color=&quot;#172b4d&quot; face=&quot;-apple-system, BlinkMacSystemFont, Segoe UI, Roboto, Oxygen, Ubuntu, Fira Sans, Droid Sans, Helvetica Neue, sans-serif&quot;&gt;&lt;span style=&quot;letter-spacing: -0.08px; white-space-collapse: preserve; background-color: rgb(255, 255, 255);&quot;&gt;Azure Subscription&lt;/span&gt;&lt;/font&gt;&lt;/div&gt;" tags="Background" id="Wtejnd3A24O5zBVkF6I7-233">
          <mxCell style="verticalAlign=middle;align=center;overflow=width;vsdxID=1747;fillColor=none;gradientColor=none;shape=stencil(nZBLDoAgDERP0z3SIyjew0SURgSD+Lu9kMZoXLhwN9O+tukAlrNpJg1SzDH4QW/URgNYgZTkjA4UkwJUgGXng+6DX1zLfmoymdXo17xh5zmRJ6Q42BWCfc2oJfdAr+Yv+AP9Cb7OJ3H/2JG1HNGz/84klThPVCc=);strokeColor=none;points=[];labelBackgroundColor=none;rounded=0;html=1;whiteSpace=wrap;fontSize=16;" parent="2" vertex="1">
            <mxGeometry x="290" y="30" width="157" height="25" as="geometry" />
          </mxCell>
        </UserObject>
        <mxCell id="XbH_MaMN36dM_GxdqdH8-219" value="" style="sketch=0;aspect=fixed;pointerEvents=1;shadow=0;dashed=0;html=1;strokeColor=none;labelPosition=center;verticalLabelPosition=bottom;verticalAlign=top;align=center;fillColor=#00188D;shape=mxgraph.mscae.enterprise.firewall" parent="2" vertex="1">
          <mxGeometry x="8" y="-74" width="50" height="44.01" as="geometry" />
        </mxCell>
        <mxCell id="XbH_MaMN36dM_GxdqdH8-220" value="" style="sketch=0;aspect=fixed;pointerEvents=1;shadow=0;dashed=0;html=1;strokeColor=none;labelPosition=center;verticalLabelPosition=bottom;verticalAlign=top;align=center;fillColor=#00188D;shape=mxgraph.mscae.enterprise.firewall" parent="2" vertex="1">
          <mxGeometry x="56.5" y="-74" width="50" height="44.01" as="geometry" />
        </mxCell>
        <mxCell id="XbH_MaMN36dM_GxdqdH8-221" value="" style="sketch=0;aspect=fixed;pointerEvents=1;shadow=0;dashed=0;html=1;strokeColor=none;labelPosition=center;verticalLabelPosition=bottom;verticalAlign=top;align=center;fillColor=#00188D;shape=mxgraph.mscae.enterprise.firewall" parent="2" vertex="1">
          <mxGeometry x="106.5" y="-74" width="50" height="44.01" as="geometry" />
        </mxCell>
        <mxCell id="XbH_MaMN36dM_GxdqdH8-222" value="" style="sketch=0;aspect=fixed;pointerEvents=1;shadow=0;dashed=0;html=1;strokeColor=none;labelPosition=center;verticalLabelPosition=bottom;verticalAlign=top;align=center;fillColor=#00188D;shape=mxgraph.mscae.enterprise.firewall" parent="2" vertex="1">
          <mxGeometry x="156.5" y="-74" width="50" height="44.01" as="geometry" />
        </mxCell>
        <mxCell id="XbH_MaMN36dM_GxdqdH8-224" value="" style="sketch=0;aspect=fixed;pointerEvents=1;shadow=0;dashed=0;html=1;strokeColor=none;labelPosition=center;verticalLabelPosition=bottom;verticalAlign=top;align=center;fillColor=#00188D;shape=mxgraph.mscae.enterprise.firewall" parent="2" vertex="1">
          <mxGeometry x="206.5" y="-74" width="50" height="44.01" as="geometry" />
        </mxCell>
        <mxCell id="XbH_MaMN36dM_GxdqdH8-225" value="" style="sketch=0;aspect=fixed;pointerEvents=1;shadow=0;dashed=0;html=1;strokeColor=none;labelPosition=center;verticalLabelPosition=bottom;verticalAlign=top;align=center;fillColor=#00188D;shape=mxgraph.mscae.enterprise.firewall" parent="2" vertex="1">
          <mxGeometry x="255" y="-74" width="50" height="44.01" as="geometry" />
        </mxCell>
        <mxCell id="XbH_MaMN36dM_GxdqdH8-226" value="" style="sketch=0;aspect=fixed;pointerEvents=1;shadow=0;dashed=0;html=1;strokeColor=none;labelPosition=center;verticalLabelPosition=bottom;verticalAlign=top;align=center;fillColor=#00188D;shape=mxgraph.mscae.enterprise.firewall" parent="2" vertex="1">
          <mxGeometry x="305" y="-74" width="50" height="44.01" as="geometry" />
        </mxCell>
        <mxCell id="XbH_MaMN36dM_GxdqdH8-227" value="" style="sketch=0;aspect=fixed;pointerEvents=1;shadow=0;dashed=0;html=1;strokeColor=none;labelPosition=center;verticalLabelPosition=bottom;verticalAlign=top;align=center;fillColor=#00188D;shape=mxgraph.mscae.enterprise.firewall" parent="2" vertex="1">
          <mxGeometry x="355" y="-74" width="50" height="44.01" as="geometry" />
        </mxCell>
        <mxCell id="XbH_MaMN36dM_GxdqdH8-228" value="" style="sketch=0;aspect=fixed;pointerEvents=1;shadow=0;dashed=0;html=1;strokeColor=none;labelPosition=center;verticalLabelPosition=bottom;verticalAlign=top;align=center;fillColor=#00188D;shape=mxgraph.mscae.enterprise.firewall" parent="2" vertex="1">
          <mxGeometry x="405" y="-74" width="50" height="44.01" as="geometry" />
        </mxCell>
        <mxCell id="XbH_MaMN36dM_GxdqdH8-229" value="" style="sketch=0;aspect=fixed;pointerEvents=1;shadow=0;dashed=0;html=1;strokeColor=none;labelPosition=center;verticalLabelPosition=bottom;verticalAlign=top;align=center;fillColor=#00188D;shape=mxgraph.mscae.enterprise.firewall" parent="2" vertex="1">
          <mxGeometry x="455" y="-74" width="50" height="44.01" as="geometry" />
        </mxCell>
        <mxCell id="XbH_MaMN36dM_GxdqdH8-230" value="" style="sketch=0;aspect=fixed;pointerEvents=1;shadow=0;dashed=0;html=1;strokeColor=none;labelPosition=center;verticalLabelPosition=bottom;verticalAlign=top;align=center;fillColor=#00188D;shape=mxgraph.mscae.enterprise.firewall" parent="2" vertex="1">
          <mxGeometry x="505" y="-74" width="50" height="44.01" as="geometry" />
        </mxCell>
        <mxCell id="XbH_MaMN36dM_GxdqdH8-231" value="" style="sketch=0;aspect=fixed;pointerEvents=1;shadow=0;dashed=0;html=1;strokeColor=none;labelPosition=center;verticalLabelPosition=bottom;verticalAlign=top;align=center;fillColor=#00188D;shape=mxgraph.mscae.enterprise.firewall" parent="2" vertex="1">
          <mxGeometry x="555" y="-74" width="50" height="44.01" as="geometry" />
        </mxCell>
        <mxCell id="XbH_MaMN36dM_GxdqdH8-232" value="" style="sketch=0;aspect=fixed;pointerEvents=1;shadow=0;dashed=0;html=1;strokeColor=none;labelPosition=center;verticalLabelPosition=bottom;verticalAlign=top;align=center;fillColor=#00188D;shape=mxgraph.mscae.enterprise.firewall" parent="2" vertex="1">
          <mxGeometry x="603.5" y="-74" width="50" height="44.01" as="geometry" />
        </mxCell>
        <mxCell id="XbH_MaMN36dM_GxdqdH8-233" value="" style="sketch=0;aspect=fixed;pointerEvents=1;shadow=0;dashed=0;html=1;strokeColor=none;labelPosition=center;verticalLabelPosition=bottom;verticalAlign=top;align=center;fillColor=#00188D;shape=mxgraph.mscae.enterprise.firewall" parent="2" vertex="1">
          <mxGeometry x="653.5" y="-74" width="50" height="44.01" as="geometry" />
        </mxCell>
        <mxCell id="XbH_MaMN36dM_GxdqdH8-234" value="" style="sketch=0;aspect=fixed;pointerEvents=1;shadow=0;dashed=0;html=1;strokeColor=none;labelPosition=center;verticalLabelPosition=bottom;verticalAlign=top;align=center;fillColor=#00188D;shape=mxgraph.mscae.enterprise.firewall" parent="2" vertex="1">
          <mxGeometry x="703.5" y="-74" width="50" height="44.01" as="geometry" />
        </mxCell>
        <mxCell id="XbH_MaMN36dM_GxdqdH8-235" value="" style="sketch=0;aspect=fixed;pointerEvents=1;shadow=0;dashed=0;html=1;strokeColor=none;labelPosition=center;verticalLabelPosition=bottom;verticalAlign=top;align=center;fillColor=#00188D;shape=mxgraph.mscae.enterprise.firewall" parent="2" vertex="1">
          <mxGeometry x="753.5" y="-74" width="50" height="44.01" as="geometry" />
        </mxCell>
        <mxCell id="XbH_MaMN36dM_GxdqdH8-236" value="" style="sketch=0;aspect=fixed;pointerEvents=1;shadow=0;dashed=0;html=1;strokeColor=none;labelPosition=center;verticalLabelPosition=bottom;verticalAlign=top;align=center;fillColor=#00188D;shape=mxgraph.mscae.enterprise.firewall" parent="2" vertex="1">
          <mxGeometry x="803.5" y="-74" width="50" height="44.01" as="geometry" />
        </mxCell>
        <mxCell id="XbH_MaMN36dM_GxdqdH8-237" value="" style="sketch=0;aspect=fixed;pointerEvents=1;shadow=0;dashed=0;html=1;strokeColor=none;labelPosition=center;verticalLabelPosition=bottom;verticalAlign=top;align=center;fillColor=#00188D;shape=mxgraph.mscae.enterprise.firewall" parent="2" vertex="1">
          <mxGeometry x="853.5" y="-74" width="50" height="44.01" as="geometry" />
        </mxCell>
        <mxCell id="XbH_MaMN36dM_GxdqdH8-238" value="" style="sketch=0;aspect=fixed;pointerEvents=1;shadow=0;dashed=0;html=1;strokeColor=none;labelPosition=center;verticalLabelPosition=bottom;verticalAlign=top;align=center;fillColor=#00188D;shape=mxgraph.mscae.enterprise.firewall" parent="2" vertex="1">
          <mxGeometry x="903.5" y="-74" width="50" height="44.01" as="geometry" />
        </mxCell>
        <mxCell id="XbH_MaMN36dM_GxdqdH8-239" value="" style="sketch=0;aspect=fixed;pointerEvents=1;shadow=0;dashed=0;html=1;strokeColor=none;labelPosition=center;verticalLabelPosition=bottom;verticalAlign=top;align=center;fillColor=#00188D;shape=mxgraph.mscae.enterprise.firewall" parent="2" vertex="1">
          <mxGeometry x="952" y="-74" width="50" height="44.01" as="geometry" />
        </mxCell>
        <mxCell id="XbH_MaMN36dM_GxdqdH8-240" value="" style="sketch=0;aspect=fixed;pointerEvents=1;shadow=0;dashed=0;html=1;strokeColor=none;labelPosition=center;verticalLabelPosition=bottom;verticalAlign=top;align=center;fillColor=#00188D;shape=mxgraph.mscae.enterprise.firewall" parent="2" vertex="1">
          <mxGeometry x="1002" y="-74" width="50" height="44.01" as="geometry" />
        </mxCell>
        <mxCell id="XbH_MaMN36dM_GxdqdH8-241" value="" style="sketch=0;aspect=fixed;pointerEvents=1;shadow=0;dashed=0;html=1;strokeColor=none;labelPosition=center;verticalLabelPosition=bottom;verticalAlign=top;align=center;fillColor=#00188D;shape=mxgraph.mscae.enterprise.firewall" parent="2" vertex="1">
          <mxGeometry x="1052" y="-74" width="50" height="44.01" as="geometry" />
        </mxCell>
        <mxCell id="XbH_MaMN36dM_GxdqdH8-244" value="Atomsphere Platform" style="shape=image;verticalLabelPosition=bottom;labelBackgroundColor=default;verticalAlign=top;aspect=fixed;imageAspect=0;image=data:image/png,iVBORw0KGgoAAAANSUhEUgAAAPIAAACRCAYAAAD5COVQAAAAAXNSR0IArs4c6QAAAARnQU1BAACxjwv8YQUAAAAJcEhZcwAAFxEAABcRAcom8z8AAEgkSURBVHhe7V0HfBTFF97bI6hgr4jY+APSe9pdQpFeQki7u4Tem4D0XqUIAiIKSFdQQQEVVBAVEBARKSIoUqR36b0EeP/3ze6Ey3Fpd5cjwH783i/hsrc7uzvfvDJv3igGDBgwYMCAAQMG7lKYnCQ1mIUULpxdKV4l520SEvuQopTPxseoLGmdy4ABAz5AyuR9zfKIElwrvxJYp6w5NPZ1NTQuXrXE9TZbbRPNFvuHZovtc9VqW61a7b/cEgf/37GM//4RHzfJbI0bx8d0MVvia2az2kKY5PmUsNhn9CsYMGDAQ6RM3MIhT2YLrh2mWuOamqy2kUzahWarfRvLGXO5BDKXr0/mcpB6GRT+TvkGxORONFsdO81hjpX8czwTvl02a3yYUiLycb0FBgwYSAHOxIWpC7NYIkApXD6XOahupDnUNpE16gYm7REmGpkrNtLIByKGM4nD4slktZMSEkdKcAwpgSxlolKWstGkBPExwbGkhNr4+3zO8HjtfBgQcH78brX/x+dfbw6zfxEQamvCGvsFJS7OuY0GDNz3kORNTuDioc8qZevUYbN3CpN3N5P0ikYwnbhMWv5cI22ZuqSUiCClaC0mbzTlqNiAnqvVgl6KakvFGnSlYvVvl+L8eQF7R8od0YqerNZUkFgpxt+HlIoU51EsIDcTG4MErgtyhzluMKGPMrlnw4xXysXn11tswMB9CWftC8H/2XQun08NjuyiWmzLhYYUpjI0bjwTC8Rl7QktKrRqXUHC8Db9qfHQidRjwmc07otFNG/5Wlr5xz+0cftuOnryDB09cZqOuMixU2do54EjtGbLdvph7Z/08aIVNHj6PGo3ehpF9hhJRet30cgtSQ0NHxpHKtoEE16Y4oLYu9kKGJMtzGYV7Tdg4D6As/mMiDEECFCKVCxhtsSMFf6u8HVZAzJ5TSAvTODSrHVZQz5doxlV7TSU+k/5nL78eS1t2Lab/jt1lnyJi1eu0O7Dx2jlpn9owpdLqPGQCVQwvhM9WD5BG0TQFrYExEAjrYTwhGNsIcxl87+aUjguu35fBgzcc3DWwOjomhldyFrEFBIzxBxmO6SRgrWcILCNCaNpw1ei21GNzsNpzJxvadfBo3T56jWdcv7B9Rs36OyFi7R0/WZqOWIyFavXhR6sWF8z59m/vkVoaOj4y6rV8Z3ZYq8q7s+AgXsErgSGmJQXiuVRA+v20TSwZj7DbBU+L2s8ELkcm8xjZn9Lf+85oFMqa+DE2XP0xbI11OLtSfRU9Waa+Y2AGVsPSf50mOOq2WKbGmBJKMn3a8DAXQtnAgewPMgCU/phpXT1KNUSt8bJz9RM1rJRTIym1GTIeFq05g86fuacTp2si43b91C/SXOE1SAGIb4HuAOC0BVA6Pj9ZotjsBJY9ym+dwMG7io4+8EPsDzEEqDkCypsComabA6zX5Q+MPxepWQEPVapIdUf+L7weWHK3m04evI0jfx0ARVr0E3zodklSDK5ecBSw+JXZwuJL8/PwYCBuwIgsdTCIDAkp1qsUoJqtf+pRaETtPleXXvV6TaSvv9tk06JuxsHjp2kAVO+oDx1Wt8KimFuGvdtjT/F/nMvpUztHPxMDBjIknDWwvCDc7LAnM5tKltzsDnccVb3HZPM6IL2jjTr+5V06cpVnQb3Drb8u4/aj5lOD1aoL6bJMOetaed6lC3MvjAg1FaUn40BA1kKziQGeR9hyaHkea2YKSRmntBICGbpWvgR7twdxsyg/UdP6N3+3gWmyIrU66wlrYTq2hm+c3j8dsWIbBvIQnA1pR9leUTJG/S6OSR2nd5pNV+4dCSVatSdFv36h97N7w/sPfIfNR4yXguGsTUifGfNOjmuWmzN+XkZMHBH4TytBL/vMZZHzQWtUWZL7M6kgBamZlgj2fqOoX1Hj+vd+/7C1cREmrTgJ226qkwU8rc1Uzs8/popzDGYnxsGRAMG/A6piaU//ATLk2rh8EZmS9z+JH84MJoeLBdPfT78zO+JHFkRi3/bRAVsHUkpVeeW3xxej5jM7yjlxfpoAwb8BmcSwx/GHOlTSpHybcxW2/GkuWHMC1drQtO+XaZ3YwPAnzv3ifxwkfgCMmPOWYvkjzBWVRnwF5zNaZD4aZZn1NesTZnEJ5JIzP7wCxEt6asVv+vd1w+4cZ3o2lWis6eJDu0j2vk30V/riTatIdrwC9H6lcyitUSb1xH98yfRvn+Jjh8hunie6HqifhL/4MjJ0xTZfaTICkMWWxKZwxxv8/M0YCBT4aqJNRL/r6zdbLEfTCIx+8N5Y9/wz9zwKfa5/91KtGoJ0Udjid7pQTS4A9GANkS9mxP1aEzUrSFR1/pEXeppv3fnz3o1JerbkmhgO6K3+PjJI9ju/UIj/rFDRImZ7wb8d/osRYHMJSNJRTYYFovAzLbYhivKAAyYBgz4HM4kfpgFpXCeV14qUtscGrtDS0fUSPxydFv67a8denfNBEDr/r2RiTeXaHRvjawgaad4jaiD3uDPexFNYnLOnkT0xVSirz4mWvAp0dxpRJ9OIJrBpJ8wVCN+72ZEHR1EnfkcnROIhnQkmvUB0W/LiY4yqTMRWE4Z2X2EppmlmR0ef0O1OFrz8zVgwKeQ5jSmmBDYgiZ+Xnn0ySA1KGqtuULDJJ/4+VotMk8TX2fTeTObxlNHskZl8nWwsXZtRDS0E9G00UTLv2WTma99cA/RiWOayewOSAG9eoXo/FnNtN6znWj1T0TzP9IGAGhyDApvMrlHdif67vNMJfSJM+eoTjcmM/vMSQGwMMdpszW2Cj9nAwZ8BhAZJMYUEwJbuVkKmEpXnykWPogpphh6pFIj+nwp+6O+xpVLmgae+o5G4PaxrDXfJJr5PtGvTECY11d9kB0Ggl+8QLR3J5OXzeyx/TQND0IP78KfzWF7+LB+sG9x5MQpCmvVT2hmUbxApHQ6tiqB9gL8rA0Y8BowqTEtAhJjiukFllfUQmG9sfYWfp2onMEybt73erfMIPayGQ4zFhp1zVKiXf9onwsN/DvRdNa20Lwd7ezTstn81Uyi/bu1YzITl3kAWfszm+BD2MduoJndw1j7w6Q/pWelYRBBG1cuJvp5EdGWdVqwzQNs2L6b3ZJ2+oIL5Gc3EOmcSvk4uDIGDHgEEFia1Ei7RLLH8ywvK7nyR5tD445CayBIgwg11ubeuHFT75LpxPkzRN/M1oJN3VnzwZxFUAr//4J92c+naBpYELgdE3iWfwjsCpjg638h+mCw1k5o6HEDtbZ/8BZRnxa3iI7f4Xtv9cy9WLBqHT2MogUoWKCltt5kMnfm527AgEdwjVA/x5JXCQgorZaN+AnaQhQCYL8upHkfOvjfSb0rphOX2IT96F3NdO3RRCMAosh9+WfPppoGRhALBJ43Q5tOupnBgcLXgIZe/aMWIEPbpMCnFm1nwcCDtuN3aGoPMOKTBaQGxggrR/jLVscxxShQYMBDSL9YBrdeZclnes060BzmSER0FXnDqKG16s9tehfMAH78WuvwiBhLEiQTJjT+Pn2M/oUshC3rtYEnxbazoO3v9CQ6nfGFIecvXaaanYcLS0e1annZ2ayOr5Xq1bG224CBdEP6xVgEAb/4RZb8yrOv1FFDYnYJk9rKJjX7ciNmLdC7XwZw4TzReDZJYY66I4EUaLt3+2oBqKyEZd+k3fY+rKWhnTf8qn8pY0DlEZT0RW1uLVmkXqKxwMJARiB9Y5jUWMmUiwW1m0ubi1eepSV9xAuT2tqqP5065wHJDu5l+7GbZkK7I4EUJG1gTlcGv7ICEICbMykdRGaNjfYv/Ez/YsaBYoOYDVCtNqGV2ZXZpAQ74OIYMJAmnKeapEldRHk2X31zaNxp+Gym4Fh6uHwCLfyFTUxPcOzwrUQOdySQIom8JxOTSzIK+OmYhkLyiLs2S5FE/n6+/sWM49zFS1Sl41s8aNaRgS9SLfHd+H0YMJAqZIALvhj2OsJUU2GWQHPJql8kmdRl6lKTYRMpEdrJE2DOd9qotLUa/Mz3+hNduqh/MYvg9xVaJllSgM6NIACGv3sY8JJAEcJHZRRbBL7sB5SgqDz8TgwYSBHOAS6kYMKkLqE+80ojc2jsKXQkBLjgu23ZtU/vah7iT+7gA9pqfqQ7IuBzaLRfftC/kIVw7gzRxKFM5vru2w6BtfHpRKIrl/UveYabbAFE9x6tBb6QKKKReSC/FwMG3EJqY8wZQxtj1EddqWBTiarzNW2spWG+MWa63s28wCH2k4d1JurGWrdnEy0CDC2GnyABtPH8GV4TIdOAhRoje7BVwWTGoCPajgAXDz64H0yreeEfO+O3v3bSE1WbELbLETEKq32HUj4OsQsDBpJBBrigjZFF9CyL0MbK4y/UV0NiDqEDwbx7pmZz7wvGI8Fiygits4/pq0WwB7J27seaDAse3h+kZVRh3jYrA6ukFszSElj6t+L2t+b76XMrlRSaGUsmfYAmQyaIyiIqfOXw+tdVi6M9vx8DBpLB2TdGBhemm4qxBJoKWMaKfGokf5SsQ+3fZS3pLZDKCB9zUDui7VuYsOwDnzhKtO1PoqMHtf/fNbipmdqIxGOxBhZqwKdHZLtDnBbUO/mffqzn+GndZspmtWvF7xHBtjp+UgobqZsGkgNExryxs29cWjFnr62WjViPjmMKjaOc5et5v7IJGVqIRIPIWG10rwKRdmSlIb10wSdeZ6WdvXCJKnVABDtSi2CHJVwxh8RW5/dkwEASZComtLH0jUOUFwp2Mltt10QWF2vjcm0HiCkRrwC/FznJmEf+74j+4b0ITFN9rkXmEdQ7wNraS4z/colIwjGJeWWxOmqKohilgQxokNoYWVxYopiXpQxLBVPxSnPFvDFMuqAYsX+wV9i/S/MnEe1d/o3+4T2Ms6d4wOquLbL48mP9Q8+x+9AxymfvKKb/RDWRMMc+pUxtzPUbMCCILBdGYHVTIZYQxWyOUIOjtsM/RnYRglyb//ViyglrfVGdo6NNm7pJadH/vYaV32tBvf5tNLfCS8QPeE9k1alY5mi131CsMTX4fRm4SwHySfEG+L7zlNNLLFhlE6bmytfJHBp7HjWkYM6h6qNXQBBreGdtamndSv3DTAYGi+2btXpeP35F9D1bFMu/09Y+I7vMH6upEKFHgQK4E994Px01Yf4SmNSkhLJ5Da0can+X35eBuwiSuJgmSk7gwoWzKwUrPaWUiHxFCYnIFxAUVSKbxVEWEhAcV0YJic2nlI3OqwTFvqoE1UP+tCuQjokg1/9YgljCTYXCpyOoIpYqslk9cOpcvSt5CJAJaY2I4mIdcqaByYlCBfOmE43qqUXGZbqknK/GtBACbsguW8ukRtQ5M7FisVaWyAdZav/sPURP1WimZXphbt9iX6OUaYlpQwNZGJK4kOQoGP48E7S6GhLby2yxzeQX+qNqtf/DspdNrivQpCILiE0w/uwAPudjdvHPxSaL/V3+vY2oCfVqMJLwcR2scnqNxcJKurpausZq1OJCqVZMefy88W+9K3kAJHVg3hiRauQpZxYwhYV5XcxJI6EExJXJGiCzED1xAws2YB2A4O8PJFq/Sj9JJgCBrqFvatdDWV4vcINdlErtB/HgGq1neTmOKDxg83szkMXgTF4EoSSJzQ8Ur/KqGhrVxGyJnamG2dcxKS+IwnflG2hRTLxYUVIVSQOYotB/4jMpOE5+J8x+TrU61ppCYj8wFwqPVLI9hA4RrOR4pIEaFCmWK0IbF4rvTMdOsYnoKVDnCpFbkGfnVv1DHwNz0NB4XRrcSsZIj4DcID3IveRLrT6Yr5GYqJUrahtF9PUn+oeeo+/kOcLd0f3k64olrr7WRQxkBYDAksQgsDSXzNlKVA0yh9qm8ks7yiNwokZcFqxThemr75SPwm1K8dqkFK2VXEpEiOkjBElATFF2FXm7+D7OgwEg3HFODYnZZCpoHam8WvItNTT2BD5HhDRhwDi6es2LAu7wiRHwganrYT2rVIFC86ikiTI8KEjgjrBpCUzubjwIILqcGb7zDzxIwE/+cDi7Fuf0Dz3DF0vXiPedVHQg1NFX7ysG7jBAYASdQGBEkMXcYLaS1QPNITFjmcDHRXYVEwujsII6WZK8TNBHKjeiko26U+UOb1GToRNELrSUdqOnkaP/WKrTfQSFte5PL9ZtI8gsyI3v83lubVuiZXCplrizbK4ninXHfFy/KZ/rXchDfDJe68RzJvt+RweY0+OHaFrVHUEzInKhBvx5X5MZlTnhryN6jWk4L7Bh227KztaVCQGvio30+WQDdxLShJYJGUiRNGfPF1TYFBQ1il/QflH4XRBYCzoJjcp+K0rsRHQbQR/M+55WbvpHbN2J7J+UAI2KnQ3+2LGXFq5aT8NnfkUxvcckBU40Usfq5rim6dl0FwPFjO+W62fxAJh2em+AFuxBaqYvAbKh8Dy0PUxkd+TMqMD8R7734f36RXwEDGAju2lzyn9t1D/0DHuPHKci9buIvgCNzO9pqVI5Dsk8BvwMaUaDwDChMf0jxFyyepzZEveX5vNqGhLzuDCbsXywweAPaM5Pq2nP4WN08fIV/dV6BuyOuH3/YXp3zrdUvu1AyoF1r6XYBEfRN1yXfz5Qvh4tXuPFfsaYAsIqIZitqE3tS+zYom0NAy3qjpQeCQ8IGBg+Z+vBl8CAhrK6nZjIa7zb1O7i5asU3WuUlq4Jt8hi264ERyOt1oAf4ewHQwsjv/khJWfO50xlag1kzXtGkDiczVo2nUDgx6o0opYjJtO6rewLZhJusHbD7vrQ8tlAYu4k8K/z2zrS3sNeJP1jxwfUgh7MWs5LkzIZoI1RjhaRcLeE9EIQXcbgg5rVvgIs9blTtZK/P3lQ58wFrUdOZmspgomcAF/5iBJkK8H9yICf4ExiaGBkU+UIyFOwqDmo7mw5ZSRMWjZ1H2IN2XDw+7RqkwdVKj3EFdbSX69cR9E9R5GlWW/67Afvpkvo8AEmcXutouRx9md9hQvntOWPKKXrjozeCKaoMHW1ysOC+ykBZX8QK/DBFFzXD2aKwKaYlbDar2QLsVm5LxnwAySJYUojrxmZVI8o+UMqq5bYDZoWThD+L7RwQcebYktSj8vpeAmY3afP+2A5IbQw5nWR3XQ6g7WvUwP2YkLgCNNG7sjorUBzYtWSL4F0TSTFYK7by2DakI++JKVITY3I3G+yWW0h3J8M+AHSH0YWFZIvHldeLBymhsRs0aaS2JQOiRXzgzBvkcFzTwBZVv1ba/4hyuD6CljHjCizr4JcroKFHYiy32Tf1ldAsQQQef50zWf2Au99/p2YURBTUIilWGwfZA8z9onKTEhNLP3hJ1meDnj+pTJqcNTKJH84KIYCwh3U68PZqUaf7zrsYregXytt/tSXBQO2/qHN/WYWkRGcw37L2MLVV0BWF3z62R96PQ037ZtlomKIyLkO02t5hcVvM1tto5Vydix8MeBDOJvT0MQgcS4lIKCoWrb210kkDmYS88g6ecFP+mu6h4AF9tDI2DfpnBfZYa6AyS5TL90R0VuBL4t9lX05n4wN6qCRkQfupUbetGMP5bN1YPO6hsgFENOGcqYj3PGf2eqYEBAaU4r7mwEfwJnE+k6G2QuaS9WYKkZQJrEJc7fBsfTWDM/rH2dpIM8YiRCoZXXSh1FgFCXoz753ZvnIMK2XeLn+2hXYbdJHPjKwbMNfYhoKQVGRuceE1kxt7lsgdZjjBP+/rxIahRpsBjwEtDGi0zKwhRrRL6oFwzrz6HkdD1tBYKtsFLV5Z6qIFt+TQGIFotajevk+av3hMG2qyB0RvREMDiikt+k3/WI+Ava7gqZf5GWmnBNu8r+f1m+m5sMm0hPVmrKLFi0EMx+C0Kyh1TDHGiXcVo37n4EMAiRGcAuZWlg2iAX7ryqPP11ODa67SWTjYK42MJqie4+h8xezaMlXX+DMSW2TcCyaQJqiL4EocCcmhjsyeiMYHMb09mgDthQBDQzfGNHwn7/TP/QdrrOp/vfuA2Ja6sWotmLmQ5jciGpr2vm8KczxvhJolNFNL5z9YllaFuVzCpuKlBsjTWosRijRsBsdOn5KfxX3KK7yIAVtjMogf3i2oVmKQLGCt7v6Js9aCnxuEHmp90kbyQCfGFNwSNHEGuhMBMoVNx46gQL0fqZpZ23lmxqesNFssVXk/mggDYDEMKllcOtlloLKky9Em0NijoDIqEiZ3WKnWd9n4hrYrAJoIkw9Idd65RL9Qx8CfqdchuiOmBkVkBg7QJ7x8QCLVV9YoYX0T0yd+QFzfvqVitfrouXRB8do0W1MdYbFH1XD7XbulwZSgbNJnZulIEtZtUT1ebq/ItIfa3QZ7t3SwLsJSKxAkGf2JKJEH8cCMKU164O095FKj2BAELW2N+sn9yGQZ45rgMxHvCzwnwEcOXmaOo+bSTlYI8OV08jMprbVcZk1dUclzqjC6Q4ywAVtLEvnFFNz5W1kDo07hQeIpI/HqjSmFX9k0gL7rIi/1muaDhU0fel3SkDbQeuDzEivdCVoegQpmViAsTqTpgAXf6GZ1dNG35FN6b5csZZeqNPaydTGvLPjpsliH6WUqY3+akCHc4BLRqmLsJQ2F64wDQ9OrCVmM6fF26yZ7idgpwWkaYLM2O0/M4ABAvO+yPZKr6kNfxjLFrH/FOpsi9VZPpw3lkCpIyTEdLATLWNX4A5h1Z/bqGhC5+R+M1w9q2MGKxjMrhhgSG0sd2vIx1JSeejxSDUwYrO5vFb/KhuT2av6V3cj0JE/fo81UrwWuc0sIC991Q9EYwdohEYWFQYP/C6TR/C73GQNhMfU2GfcJmwql1nYye8b01nQ+P/e2XeP1N8K7QaKqLYoTKAXlODfxyjKAMR37mu4TjfJ3RrKqLkLdjZb7Rcx+mEkfL39YO93a7gbgW1UsXMhSuL6YC+kVIE5ZpjI2H/p3X5s0nfUNDC0L8x7FI1Hbe1FbO7u2a5/KZOAYN+3c/R63sN8m/LpIQ78d5Li+owR1iGUi9DMYQmJqjW+I/fZ+xoyUg3zBJX/5W4N4ebXLOOT5o2L16ZhH3+lP877DFjbi2gwgl4ocucvIAkFCze2bdZMZ6SMolA86k37Ayg8KKPVKCGURYB8/vqD3teK3WNjOPjM5RJQjNHG/fa+hZw3xvpiTLjruzVkj1RL1VgJ0wVBrkcrNaQla//UH+V9BmgmFIhHZhP2RfZj5PaOAvs/YfDCPfuyUIEPcOzkGar0xmBhZgufWUscOZbNGh/G/fe+hHOQC1uSFmcJV3I+Wk8NitqD0Q5mdcnG3enwvZ4AkhpOsUkNs1bsUIh8Yx8uEcyKQJ75kDc1Xx07XWRCHM1b/LX7ABWK7yTMbFiNwnq02LcoFgemTu8ryCCX8yZoqA9dUXkiVyuzJe4iAgpYO1q769v647uPsWS+Nk2EFVG7/tE/vAdx7YpWPRQpmSN58DqedXeeRDT7uVrNRY52Ukqn5e7figbEhKQXksiIViMdE7s1hLJUVXMX6mu22m8K/5hHvA5jpuuP7j4GMqbGsK8MrYyd/e9V/LVBi5QjMo6c8Kyojp3w+dI19EC5BG01ngh+OS5x363A/TjLI23Clqn8mFK8Sk4sAwsIjSqqhEa/rLxmeUQpXP5hJSTEdd4NPjKIXJglnKWGKW+pUSCywv4Htl0Z9dl9sJVoerD5d21aCNNB2FANa4t/X0G0jJ8Pqmjs8/HiiswE6mpvWku0gsmKGl//buX72U30wVusjR1acYLLd8csRcexM7Tgl+4vswJarljqIO6TZSBJC0FgypXAJuW1yrnNodF1VYutu9lie5/9hLl8Qz+zLFXD7GuYkLv45yb+/zJNHD+arbZZJkvcMNUSU99cumpF5ZHc0MYgMgqhVTX9L3A8UuJQUB4PZ9zcxfoju8+BNM2vZmpVOLCrPwJBSMqAL9mZTVHM7X7Nf8/szdW8AYJ3f6zRanYjIo31ywjk4X5QaBBz1TCp92de5VNf4+B/J6lQAvvLZeqyRtZrgVns3UCQrABJXjlFpOHlEo8rJWqWVENjuqpW2xL2CfaZrY4Lmo/Q4Nb+SELYZ0B4Hj/lZygcj2PwudVxhQl7kgeAnabAiHlq/sC+yuO5GpryBU1GGhzKsaA+9Kzv/bSd6N0ARHDR0WF6oi61c6UPkAB+9OQRWZPMIDGmktBWtN+57Sg/JBNOfvTxCio/4OPFKygbKx1t21akccbvV0ISiumsuSOQGhgRZRAYRGYP1pJbDY1qx5p3EZNXJGpoc2j1SGUSm7D3rNySBTs7BEbzCBWlCVaR4DMUjEehPItN282fRy9VZMiIuTgRMFBDo4+qQXW2sya/gYeCLT4+XsRmowENgghMgJRyo+FfggwLP9W/kIUA0xnRaJDYXdshSD55f1DWtirc4FpiIsX1fVdMScGaFEor1O73rC9pMuOiksDaZ8/lfVYNjurA2vc3QTg0kMkHIiZtmQKShjKBmaCotlC4Xmeytu5HUT3fESVVIruPpNKNe1DhhM6UJ7K1MJfF8SA1CA/h/4swvhwghGlt001rH2+ZcrcCm5ihJnVaK5ZAFGjtO7DIIFUsXai5Ae7aLAUDFNJB4T/fZfhjxx56IaKl4IPow1bHflZuWADkF0gTGgRG4AlVK1XlpdLPq0GRzdif3SjsfkHgeI2A2B6FyfdU9WZUvEFXajp0Ik1duJR+2bKNdh08SodPnKaTZ8+LrVkgFy5dEduLHj5xivYdPU4btu+mT5esoiEz5lOtrm/Ti0zuByvU06ozYF6OyQsii1rVrOEHTfNxDai7FQf3aAUBoLXckUAKTG7sK4xsrKwC5HNjO5m0BiGR183t/yYT94PORHRA4As7WQitXB992S/pm5LEIDASMyAB5tJVolSLfVXS3BhMZ5jNTLRs4Q6RPN5/yhe0evN2fj/eF4JHsGDWkpXU5p0p2iQ7tjGFSQ6NXTaa3p75tX7kfQ6kLY7uTWnuEgGiI70R26ZmFYjcaWxVU999m6VIIi+eq3/x7gI2BtRqgGlaGYFepUp9TLFmCpy1MDQw1lViK5Zn1MDIfuZwx6lkGhjmM2vGym8MpvnLf8vU+tE7DxyhsZ8vouDmvYXWt7bqR/8e8GHxubsZiFp/9F7a5immqMYN1FZPZSWsW6UtAHEOcrkKfHwEvhDZvgtx5VqiSGASSx5hyUIzhzlimVs+hyQx/GBoYIwWDyh5XitmDsE+Sk4+KszcUBuFtOhDny35hc74sQD88TPn6O9d++n4ae82t77ngHljRHch7ogAkoDIk4b7docKb5GYSPTrUq3ofkq7QKLt0NiYQ750Qf/i3YfZP66mbGF6BFszrxcoA3wb9HI2pZGYgaWDD5sLhtZSLbFrkwWy2IzGPkoffvWjX5YPIt1t8Iwvaef+rJuSlyVwg10ZlADqzZ0eQS25Xhg/QWCY1SA5/ob1xetZC3q507/XwCoqrF1GeqmMWCOyLne8EJu/cbvhP7/bx/d7LPsZFy5foeINu+rmNbumCHpZY1AswycAiZ1NaSxUeEwtVr6x2Wo/KuZ32RQQkeigaBFp3rGffbJMxvZ9h6nz+zPp2ZotSQlLoIWrNuh/MZAisDZ3469amR6QAlHevqzpxjFxkfGFLC9U7kCiRRcWrOeFJve3qY2iA19+pCWqdHRoRMZuEVs3Ec3nz7HGWZCZ7wHJLTgWcYB7AH0nzRZxHs28jk9ULbZ6zDev4UxilJpFlconlEJWm9kad0xoYpCY7fqAcgnUc+JnXm8GnhZgOg//ZAHltb0p/G+lTDQ9Uq05LV7DL9lA+oDN0FHa9t9/NC3mvFYYJXyw0AIEQc0raEKUzYGfejYTV5JhsMDqJVgNQ5iob9o1a2HGu1oetdy7CWVuTx7TAnJYBIIVXl5uB5OV8M0vG27NwFRsxFo5fgRzzitIc1qSGAv4nza/XKyGGhq7S0Sl4Q/z6PFC7Zb0yRL/lJrtM2kOKYGs/YPjyITrW2wGkTMD0HDYVxiJGCA0zFdoa0SQN6/V1jd7W6ETCzow1bVyMdG0UZqVAGugO5v6IDCqnNzBCh83kbONqLkfgdJAeSLbCAsXilK1Or73Jv/aWRMjqAUSP6fkylfeHBK9MSkyXbouvRrVRkwn+QttRk0VfrgwPdAGg8iZC2hJLNZ/p4emnUFqaMvhXYmmj9GI/ftKor//IDrG5D/FGv3iBY3k0KLQtMi2Qrkh7HyBBRxLv9HKAiFCjrpaqC0GAuN3BKywdcyVO7fw4cbefylx/sd0Y9pouj57El3f4j+3DVsZRfUaJXIuRAA5zHFEsTo88pNdSYw1v88rT+UKVIPqLk8icdloerJqE1qy1r8E6vjeR+LaBpH9DGxFs42fMfYwxpw0tqQB+dpGadoaZvCQjlqNMBQzwG4XOA4LGpCMMqyT9h0E1FA8v32sFqiCvwttjJVYB3YTXc1c1ywtXN/xNyVyu691a0yXuzSiK10bUeLgDnR9zXK/aefB0+eJ9fRiCkoLekUxBzMEaU4jOo3AFnxilJnNbypZY1oSiYNi6OEK9Wnm4hX6pf0Hg8hZANC2KKIHkxglcWewFsUyQhAX+04hqWRQe60kL4gKf3ska3Ro4KlM2lnva2Y75nyzUJDq5tXLdOPTiXSVyXuhV0u60LsVneefV7o3petjB9AN7EjpB3y9ch3leL2BiAGJipsW22DmYIYg54kxxYToNMqP5FXzFK1nttrOIZ/ZxCfPZrHTO58t1C/rXxhEzqJAwOwEm88InqHY3r5dmimNBQ/4DISFie3lhuOZiRsnj1MiE/ZKrxaCwILILJd7t6Rr/dpS4k7/VFhZ+/dOeiGy9a3ca4v9Q+ZhuueTpUktS8xiR0PUii6tlq21VJ+gFhG1psM+FLvR3QkYRDaQWbhx4RwlTnmHrnZvIogMEp8DkXs2o8Th3eg6Big/AAEvsal6YLRGZKtjjlK4MFzddEFqY/jFKPiOWlivqQWCezJhLkEbYzkhViHtPnRMv6T/YRDZQGYice0KSmQNfLVHU7rCP6/0bE7Xmdg3vvuCbiLLzA/A/lHFG3QTM0Ii79pqW6Lkua1CjltAG4PEyJuWlSlfU3I+WVkNjtyEBf1CG/OJx8y5c1twAAaRDWQmQNbEtT/TjYnDKJF9e+Eb//g1a2v/pa1evHyVgpv3EZsPahrZvjE9U1AywAXVLetE52cpaSoUPppPdFMQpkxdCmrWi46f8VOh8RRgENmAP3CTff4bRw/RjdMn9U/8i4pvDCKlZB2dyLZdSolIKNhUIX1jqG5EqV9hKao8kKOaGhy1XUTNQuPoQdbI/kr6SA0GkQ3cD4juOUrTyJhLttpPK2VqI5cjVThrYwS4sL9wGTVvyZ7mMNsNQRY+Ybk2A0RS952GQWQD9wNsKP9Tuq4k8hmlZHXErVKEO21cisWqlqrxPdQ6qm2YQmz07uff6Ze4szCIfHdg+/7DdPTUnXXD7mZUe3Oobloju8t+Mi0iQxsj+QO51PCNoY2DlIcejlFDovcgAQQ5n8/WakF7Dt+5SLUzMkrkxOvXRdvX/bNLbHa+dP0W8XPd1l0i+n71mn8ikSfOnqe/du8X6axL1/9Fyzb8JX7fsms/nTjjn+WCp89foK17DtCaLdvF9SG//LmNNv+7j/7zEel28TPtM2Uu5a7ThkZ8cntVS7wPFIFY89eOpDb8yu35m9t15kLGa4WdvXhJPNdVf/5DP/G7/eH3zaLaxha+p1PnMr42+cz5i7SU27To141i37Dvf9tEi3/7gw4e95+vfPPmTScfGRrZtlspXBWK1i2c543hSL/EUoIlVHm5WB9zaNwFqHXMZUV0H0E3/Jw8nhLSS+TNu/bRqNnfUHSfd6lEk16UO6odPVqtGeWo3JiPb0rP121HxfnzyF6jaNisrwXRfQ3UH/ti2RpqM3oqlWv/FuWL70xP1WpJOas0EfIk//4/R2cKbzeIWo+aSp//9Kv4ji+BNeELVq2nTu/NpNc7DqUCCV3o6dqtxPVzsDxRswW9au9ElraDqPmIyTTr+1UekRoD1fvzllDRBt1JCdJWpfWb8oX+V6Jjp87QhK9+pLq9RlPhhj3oGdGGxqIdT9VuSfm5Xa93GELdx38qiJgWNu3YS/2nzqVKnYaJZ/h4jebi3T5YqRE9Vr2ZuKfy/My7ifNt07+VNr5dvZEeq9GCslWoL86V/fWGlM0aT299NF8/IvOBaiEhLfs6Ra1tO5VitZ5gbrqFnHJCKqbcKDyIxWouVGGGSAARq5vq0vtzsQVH1kBKRIaWA/7kkbjVO1MpT3R7UvgFoP1KUKyouiDK7krB//E5/m5x0HORban+W+Pp17+833XhNI/q4+cvoTLNenNnaCzaq9US4w4e6tQGiFiKyX8rG0UPvt6ISjftTeP4eXuinZxx6cpVmrF4JYW1G0g5qzbl88do1wlOoQ1oI7choGJDKt64J438dGG6B5X123ZRaKv+fC7uL4F8HUxVsjsmNfIcHqDKYDolvJ7w+9y+D7QLf+PvP1WrFTUbPon+PXR7qaZDrBl7TPhUDMxKMJ8D7w/tl+fBtfFTPle+Fs7XYsQUYe6nhbnLf6NssES5/Yos1cyDEq7pLxw54TKPHGZfI3ZcSQHSrJZBrkIs2LGhilqyymKshYR/nJ3J7M/VTWnhNiJzh3iqdmv65pf1NPWbZZQn6g3tBaPQAb9UHJOWiNraOJ47E7QVRvqzHhIJmr0Saz4xiOgdVrY1NcExSYMLdx6cY/Xm9GsSZ8Bcj+w5ikw8GIv7kiWD3VzXWVBnHAOjbIOl9QBhqqaFCTxoCRJy+3EeEMAclkBvM5EnL1xGD1ZgYoDgfE7Xa7qKWJoKEgbGCkvqVzbBJTbu2EOhLXnAQPv4vnCsu3M4S9L5eCArztYCTPrU8NXKdfQQBl+9rUKZ8fX6Tv5cPyLzgfK4L0e3FdawrpE/U/Llg+V8G+TcMf74GIvcmrScEvCgQy1da4PmH8fQq7HtaQf7NFkFrkQGCR9ljRPI2i87axOQ0bXTilEaxQDxQp3FhejipWEkDoyjuP7v8eifsYX0GM3zRPNAomulZOdm0drB53duA3cY/M35WHEcd57cEa3p0x9+0c+ePoB4MOGhRVzbkHRu5zbgufBnrm0QgxuT6Sl2QyYt+Ek/u3ugpDHuQxIL7yZ7xQZUpEFXdmfYGuB3Is+L45LdP9ripp2CgEy+Qkw++NR/7zlIheqzluJ3n3QdltvPx+LmfJp1GU35+dn8vTvlvaKzApHhmz9erYkYrPRFE28zN8HZ2+AarX6VBVuTVlAefbaVGlR3L0YCqHaUsEVVjqwCVyInPWxoHv3hSxGdFqRik+6x6s3phcg29Gpce9babYVPZcI98qjn+uJF7TH+XmSvMekORM1bvpZ9K2yVGZPsXBDRWfl8Kg+Oj7P/9Sz7hBD8jlJJoo26Nkv2Pe5A8Ps+/XG1fpXU8cO6zcL3F9dyPRc6PJvOSniCcEWeZv/8mdotxHMRg3aKbYgRA+SHC5bqV7kdrkRO+i7umzW8uZx+fb4G7lc+g+fwDNhHN3FnxXvA4OH8ffleK705hCww3XFf+jXkM81WoaHw85+LaMXnbCXeK0o/OR+b7Hylo4WfDj/UHbICkSd8+QOZxPPgNvC7UUPiWjM33cKdfxzCUkl5+sVO5tCY44LIpeqQo/9YupbofQ1qX8Edkd2JIDZ32vJvvMW+2kL6eeNWHtmP0v5jJ0QxfARUEAyr9OZQJphmgjp/X5A5KI5avzONEq+nvkBkPZvTeWLYJ+cXbg6/1XlEJ+AOBR+1Dpu6781dLNoB7YLo8YpNW+n9ed9TVO8x9CgTCt937Xwg0vN12ohIc2pADbOC0Fggi1MbxDnQ4blDVHhjMA39+Cv6bs0ftHH7bmHCIYqPze7QBgR53LchljVEMxHBdYeUiJz0fX62D7D/X7vHKHGtFfzst+IZ7D0ofn/ns28opGU/Pgc/L51AUsQzlJ/r58f5MMDV7Tmaxs//QRRgFOdjQRR82MyvqHQz9slZQ7sbXB5kt3HuUvdlc+80kW/cuEmtRk4hpXhtvl9uc1h8ojkkujJz0y1gVssFEs+xYNpJ+MfKc3l7mENjz4uIdYkIajVisn6JrIE0iYwHz6bcS0wskCStKQhEdSdzR/yfraN48c6dGC89G5M8NfMW36/SabggXLLvYiBgMx0RaURCUxsM8fKW/P4nVegwhM8D0/DWeYT5yPdbma+RUvAJ57b3H8eEZRK6DiT8LIoywWctWZVqVVO0AdM3lTsNEx3XuQ0QmLlBTDbsBuKKlIgs2s7PIL+js9ghJCUtCCCq/ea4maTClHSxkHAf8n2DxEXY3P5q5e90PZUBFgN246ETxTt07StKqbrkGPC+26nHO01k7KwS2pIHIbaedP94m1KyMlKm3cJ5/hiBLmxNWo6lmpq7QD+z1X5V3DCPCp354WYlpEVkvOiC9brSyj8ztnb0963/iuCKsz8nzsfXCmrVT3Q0d0CADZvKCRNS/454+dyBEwaNFy8mvTh++izVG/SBILPqTGbu2KZQe4q+6pcrfhcRb3Ta5G2IExbHNtbW6cXJc+ep2duTxHedCaV16Bhh3bgiRdOaz/EyD6i/pDNYijlmzBy4DqhJ5+N3W4jf7fptu/VvpA4MXBFsBWhWSvLzYLoLvrcr7jSRESx9GEUF8C6x+6jF9rmi5Elx5ZNzxBoVQLCNI3ZLr6HmKTCAv5wobpiJ3HHsR/olsgZSIzI6wJM1W7JmSTvS6g5rtuyg5yPbihctzyk6M5Pqo0W3V0PBzhkVoUUxTaAfL7QQa8aqnd9m/zrjc8LwyWt2GykGFOd7RGcq124wnTmXPJouajyxWYw2OPvF6Lylm/Wm3Yf/049MP5BkEdOHzynacItQQruzNjzqopXdERm/B3D7J379o35U+vDnzr30XJ3W3JFdBlQeKB94vWGGg3/LN/4lfGgMrEnn4neKOWK4Fa6400SeyP4xptTEc2d3KFtoTD/mJeA22AUiI78aBQQQsUYiyOsstZRnXu7FPvIZ4SOXrEMNBn8gzK6sgpSIjECJKdRBPT+crR/pGYbN/JpHQT6XkzZSSkeRfcA4Ng2TV41ctv4v9n+bJL10cSx39lwRrem3NKY5UgN811yopMgDkzwv7i97hQbCB3TGhm27KBcCXM7Hcqd/lH3Ihb+s14/KODBT8apwN0AAjaB4JiZ2uRDYc4Y7ImMgwdzx0ZO3m+JpAVNnuK4cRASZeHANbzdQzI9nBBjoYJWIPqO3DX0Hz2vW4tv3z76TRL5x4wbV6c6DuJh2EhldF5SytSOYl0CqRJZTT5LIEcoTubqowXUPCyKXjqTaXUfQ+UtZZy+glIiMF/NCVDuvp8r2Hz0upigw9ZZ0bjZrCyR0FjtCOgPzpM6aUL50JKR4izfGzBDXlZ0ZJMH/B834Uj9Cw5QFTCK+92Tam58PMtq8reLSd8rnydog7o8HuQ5jP9aP0OBKZGGVcBtajpiiH5Ex9Js6V1wn2b3zQNZ1/Cf6ERlD+3f5WfIzStY+dhOg/VxxJ4m8+/AxeqZmczFoiWi11bZRKRiI4pdAuohckqUSSx3l4cfbqoERO5DZhU5qadlXVCzIKnBLZDzsEDubg+/qR3mHBm9NSNaB0YkeZL9llVPqYGLidWo87EPRIaTGgl+DtEf4rN4CEeKACvwO+NpJHYrbZO//nn6ElpPbadzMZKa9YrVRtooN0pz7TQ8QN3ikCndq5zYwIaqwhnMeJFyJLIjH78PTtEZE93G+JCKzJYApxPc8zDAchKqUVpxHvw88J+5DiKC74k4SefTsb8SeadjBVGjk0JhxzEkAfE3TtM7DIjVyXSXggaZq6Zobxfwmd9L89o7078Gss6uhOyLLTt53im+21BSaNkzby0p0JHF+G81xms89f/EyVe8ygjvsLdMT27k+zybxP/sO6Ud5jn1H/6OXY9uL68r7hNlejs1LGW2FqR8vgmO3fHoQ7emINrSa/X1vcezkGSrRuGfyNvC1ijfsJnKrJVyJLCL2TBpMK3kCENaZyDgf5vyRq+0J3mIrxvl9ZkUin+P+FIopuKSli47rSmBkNeYk4JbEAIiMYJckMrK6KrLUZUlQS1X7BREzvEBE0JBLm1WQMpFtNGqOb5ZaIvlBJIskI7Kdpn27TD9CW0kU1m6QTuRbRCvg6ERHTriPcGcEiGCXbOpCIj5/maa9kvKwsRE8klbwedJgwmYZEl58MZicPndBSzcV579F5PyON5OtBrqdyPy8vCHyF8k1siTyeDemcHoweMb8LE/kect+o+xoFw/EejGPlcrLJWRVkDSJLKPWRVnKs4DIUWrRCgu1Ol18E2WjaNLX3ptpvkJqRB7xqW9K9I6bt0R0nGQamQn7sVMdb5BJzPs6a2Tu8PnYgjl0wvs9kkDkEk1uJ3JQiz50To9ZYJ+t6L5juaMlJ/ILTGQkR3gLEBkrplyJ/Fp8Jzrs5G4ZRPYOsLCisbsEli2iX2PBUtmoJsxFIEWzGpBEdp5HDmepwxKtvFzsPW0uWVvGGNN7dJaJXKdmWrf30VRZj4mfcefRzis6Ev+Ef+UcBUb0NIp98mTakEfTZyNa0aade/WjPMfOg0coNyLXzh2Kr1W187Ak//T6jevU9O3JWpRTfxZowxO1WtHyjX+LY7wBVuEUxiocfrZJ5+dOHdS8d7IAqEFk7zD/57WUHfeIQZtJzNzbrOQPQxVbAKnUKQJElpldz7K8xmJhqc1iUx56/A1zcNRBEfDiEf75iJZuM3ruBNwGu/Bi+CGEtu5Pl696t7HYtevX2ZxEhpWT38kvFeuIsQBfQgs0zSIk4jsfh7zk6d8u14/yHFiAoZZz6nzoUBYHtRyZPCIuOmlp52AXCJBAo2d7X+0UgwHmbkHKpDbIoKLTuG4Q2XNgyWupxj1uBSz5PtWgyK7MQwAkTlEbA/ijzLVGUS/kWgez1GCxs8SrJaqtNpdnPzE0jgLKxdOXK5LPHd4ppEZk5N9+t2ajfqRnwLrmx5H3DF9FnptfpLXd4NtSJGFqY+cNZHbhOPHSA7XFFt5UHsEgYev/njDbZWeGRQAiT3JZvLBg1TrKjngG/y2pvfx8yrUfnGpKZnrQdtR0oY2T2oD7s8TTkI+/0o/QYBDZcwycNpfPH6NFqmFSW+PWKS+Wwg4vULbpIjIOQh1rWaurDEsVlliWeFPeMpPNYY6b4kbYT24ybKJ+6TuLlIiM/+OBV+s8XJRr8QSIREf2Gi0eLF62PDdGy96T5giCOWPbvkOU195JXFceixeSg7Xypz94XnEUFT1yVm4iBqekNvB5sboHiy2ccfC/k1pqKT8TeSxiG8iqQq65p0DpnKf4eq5tQLvWuBRfMIjsGb5dvYEewRSjmMLUI9WlajZg/gFwfUHmVAEi4yC5Htk1cm1XHnuqizk0NqncT67aLWhDOnNcMxMpEVk8dH5RmIdD4oAr6dKDPvyyVCQicCeU54RrgbI07lYfwVdF8gcWFDi3B8Gn/9nfpLVb/9WPTD9gvmNRAPzh5INJNDUe+qHI/nFFz4mzRWeTRBLH8/extO/HdRlPV8V0YzBKzfA5k7WBrY2InqPo0pXk1VQNImccO/YfpgL2jppJjfuENg6NWag89hhK+sBaTlMbSzgHvFB4DxVCwljgJ8O8bmQqXukncQHcTMk61GToRLrmp20zUkJqRIaIChc8+HR6f2a61xKfOHuOuk34TKQf3rb4gTtvi5EpZyhhag5lgjCHnNQOWAdMpML1u9GiNX/oR6YNVGIp24IJxNdMOhcLzoU6VM4JKc7Q0infFIOO6/ewaGHO0l/1I9MG0kPD2w7S2qATSZyLB8gHKzaghaxFXGEQOWNI2gO5tMypro/FEbuVwuEotQUCS22cLiJL89rZT8aJMAkdx+JQnszdxxwacwK+MnzBHOUSaPkG76Oh3iAtIkPwElDu5/U3h2oF7c65X7xw/PQ5mv3janodwS32BeXLE6K/wAL1urpdJeMM0VGYNM7fF6Y+E+uJ6i3YQvhU7LB3M4XIP7QwTHckk+A8sgND5L0ghzw1KwPrcgWBnO8B3+c2IHbQhv1drMG+lsJuiHATsFb5lTjWEtDETs8XBMBCkFajprn1/Q0iZwxvoT18feTEi6WKYY4LaskqjZhzIDCs5HRrY0AS2bWKJsxrbKxcjyVeLVx+oRgxcENl6lJsnzGprgPNbLgjMn53NishYmkhaxUUvyvbrA+1HDGZhs78mt6Z/a2oyQXrokSjHmLBO45z/T4IgKqb2Ks2LVy4dFkLTsHE5g6c7DwhbCEwOVG5ozr776hmiYUZo7gdIG9kz3foxZg3ko5z/q4kEBbkp1VDDGuSmw6fJExw2WGlaIMBMr5a0+sdBlOHsR+JgNXoOd+KSpexfcdoCyTYrXDV6qIj832FtRuc4syFQeT04xu2aHIk+cV4xkzkMrXHMteQnIXliunyjV0hzWskhsi61piGqsUiotfKE8/30LSyqB1E2aw2t8nm/oIrkfFSssP8Z2vBOcIqBSYhXoTQuKjiyB0CL1X7HAXhbpnSEKFJmTyoAzb9u5/1q6YN1PcSa19RK0vvBFLQwUEQ0Q4U5XNuBzQ5/+22gQQk5uORkJHemuJIIonrN1Y8H+cgFUR0SLaqtDbw79wGkEO0AZ+jfS6DkIiUM4nLNu9DW3alvKWoQeT0AfW7C8EvRtEA3FuFBqQGR/2kPPYSSm2BxBnWxhJSK+MkWGWBE5ZmwQKKaBahlU1FwhcgbUw81MBoeqpaY/rZBwkHnsCVyHjgT9duKQogBKOukyBtcvNUvhC8SCnu/i5Jj4oW837O+HTb0ZNnhFZU4WtDw+odx/ka6OyptUMSGANPvbcm0IFjJ/Szpw+YIsNqHxS/E4OEy6ACSasN+Ez7roMieo5mHzz1wgQGkdMGyjq9gsqYbNUKEpdvAL94j/JKKRT0wOwRXFwEuTKsjSXwRee9n2RZXKmV6ysP5Gynlq39d5KJXTqSSjbsTnuPZHzRurdAsXelZKTo6HjY0CQ5qjQTAwu0YtPhH9Ij1ZtpGoZNZtEh+IXgpbiK0L44B44LiqOHqzWl+oPH0z8ZqKjhCixkmPbtcipcvyufW+sw0HiuGtdZ8DehFVEcjzU2qmCg2HtG195KXL9+XQS4UCNbhfbH/aWnDRjI0F4mMIJnb3+yMF1z0RO+XKJdAxUscQ6h+eOEz+0J4HbIAVk7H//ObRrLBPcEYjkmBlacB+dDQLRkHbdJM3OXIRFHS4QSx6INpepSdy/qWsM9yx3RUpBYDE4aj86pxSo3Z34hKQuSoQCXO+DLGAmctTL2f5K+coKQJ1/sbQ6JOaatk+SXzo2K6TXa7xu7dR//CQUw+VDh4aHKjSkbmyfPRL6RLAiHLT+aDpskdlUIQGZSGSYI6i6jk7JFIX7yy8HnyMTC+mMsSUQVSl/tqAFNOuqzb0XNLqxGEp1Cv6ZoAwS/l+JBKcQu5mwtrfsL8qDelC+A1UvQYlhYLyLreG94DqX5uvJZwBVAG1gDo7plYMt+NHD6fJEiml6gasej2LmC3ZFHsJsH//5wlaYeb2wwfdEK/n4zysnnkOd7tGZLmrHo9kIA6QFiAQ9Xa550PhRDfJjfu7uqL4t+/YOertOW+1aTpGNzVmgoCvp5grnL1tBztZrzc5aamElstZ9Ri1fqzLzCVBMUqMcmtTPwZZAZJ4PDLXdkRFXN6ixIEKnPEm96udg4s9VxGZE2+MvQIA0HfyCiv/4C9muav+J3seYXIx2qVaCWM5I5XIFpGaQ6DkBwi4ka2+89qtNrjPgJExjrVPH39OxA4CmwPA2VIsez1kLZpHr8vOr2HiOyvxIGfUAd2Az+YP4SkQ7pbSZWSoBmh3+GNcpYvwyro27vd0UbsAyy3ejprO0W0Y/8HJ2XJ6YXKHC4hL+LQA6IgEQHbOEDV8MToEQSvo+ihfJ836/906O2AahSkvx8G2nxb5vcFjNE+SYogm9+kfeyUVQdPZzBGufAzMUr6VEoEh4wnUh8Qi1Svg3zCSSWAS4oUq9ILIGTSK2MTK+XWbSC9dq8soOlIUsD02thX4qQOfKAYXawmV23xzsZLubub0DTokOD8PjpScKIL4B5eCw4QDu8SeP0BohwI9J+J9twLwN14GE55kSKM6LTgsTsE1ttR5SCYS2YRyhBjZki+MUeRalTgtTKOCkSRLCQ4n8sSNvUCg4ggg3NrAY0NxWv9HMSmaGZ2Wyo3H5wmvOtBgzc68BKpqCmSJll94X9bEFidv/MoXEH1NdCsTQR5afhwoJniE15bVK7g5xXRtomErdhYmMxBXKwZRS7vhLAZC5S4TtzWPxNzcy2C3+veIOu9JUPytwYMHC3AUqs3ehpFBCuxY+0CHmCpolDY7crr5SwMXdAYiRfwS/ONBIDzoEv2PCo51WEJZQF/nIMi0ZmRWlses3yBRK9kfklwvRM5hz8e8u3J9PeI8kL1RkwcC8CbtKMb5dredMIJMpUXRGZtl8zBUbMU559FTtFQDHCpPZZcCs1OJvYsN9hAsBfRt1rTEm5krmh6X9lprH5cEkU0waZEbZnQhewdRA3mJUqcBow4CugIOXHi3+msNb9SdUDv0ILw+UEiUOit6sFLZ2YI1CECCCDxAhuSRL7zC9OCZLMUP2w42EKYJkjgl/OZMa0FJZc1Te9VPRdc0jdXeIGwlk7I6EgMFr8rNF5GE36+kf6z4+RbQMGMgvImR/y0ZcU3Lz3rWlEmR0ootK2C6biVWcpz+TBmgVM5cKqBYnBJZDYZxHq9AAXkv6yDH6hUVIzo5GYY0YADGROUHI+3lEtWnGR2WK7qhEayRY8UpWsIybVi9brQj0mfEL/7D0kak0ZMHA3ANNRf+85INKSq3caRrlqtdDn4usKRZXkB3N/V4PqblBeLdGO+YAaeCjVAxJDESLhA4rRrySWkP4yyAy7XmpmNBI+M+x+1PiCEw8zW9PQufMPNwdGbBNk1m9QELoM33xQDD1VvSm93n4wdftgFn2y5BcxwmWVMkIG7m/AXP5n70GRXPTJ9yvFHH+pxt3p4cooRImALvdh3dIUGlh3J9WgyK2mohXGKA88gCQqlM0CiVHUElO5ksR+MadTAkYPSWZpZmOVFNI4seQR+0XVZIGprU1PgdAPPNzWVCD4E3Ngna1JJgePXCKHF2lyWKyAh1IqUmxtEtqiLzUeMoF6TvyUen84m8bM/pY++u5nUfvKEEN8JTO+034On/kV9Zr4mehrUpoMnUCWVv0oL2qJQ/GUYksSU0joq0g5tejklT6w1XZdDYxYbSoQMkR5IEdV7vdQcCAxlB2i05j5QdAY8aZMDWylF9LMxqiC0QWjDEabAixI5UQxAkxPYY8arGPWUjqRRPLQo+3gP6ulaq5lk/uieAiYU8NPmCIIjiGpBKmKJSJIKVpTk7LRlA3zb4YYkgkiUlKL6H1NCvof+iETV6wTxrEwm7FYCH0Wv6OybFDUHlORirPUFwu+yQSGiwkCI6CFrU/BCwSIZWQaShBa+I6TWAKNAZllNBtZKVj2CL8ZNwLtjLrYCIRFssDchoaGOBRVbaw8+1I/tdjrS9TAyB3mkOj/eES7IUwTmN+C2PygMOLxAxSaWySsG2KI70WsGcfqOSdya6SFtuX+WLGRZjZbbdfMoTFHWPNuVotVnqe+VKyvkv0hxIbQ16HEEDNCrgWsVMSRoIXBD2dTOsuQWAINQsNAZpgM0m9GvS+MRohqI3kEN4mRCv4zTG5tXbOW5sm/q02Up1/sbcpbarypSLmv1dK11puDow+ZLTFnxQMVvrUhhvhTmLyWuMvcDw+oZWptNJWoushUqNwnpldLv608k6ct91tUl0W/RqA3kAV7pYHAMKOh0JBzAWtVauEsYUqnBZAZjcWoI7UzfAKMSjC3QWhoaORpw+TGckhoaZAamhrEhgmOTLEYJSCgqfJYrs7KMy/2Mj2ff5ApT+GhpjwFDTEks2WIkBcLvmV6scgg5bm8PZTHc7VVAnIiRwJxH8R/0IexcQOKbaBPo29LPxhzw3AzodCg2LK0FnYHqZmldpaBMIxKktDQ0DC5kauNh4DRDFFumN4gtrajhSYwVZDLDbLjc/jahhiSWYJFQOiDEGhaWI9QOOifKKiByDP6K2I/UvtiJxbUtEPfhgZ2R+C7QgunBJAZNyDNbRAaGhoT4HD84UNjBIMvgcojGNVgnmCkwwPDw0PEDw8TAqIbYkhmCvoZ+hzIK4nrrHXRT6F5MTMjyYv0SriR6Nvo46joAQJnuWCWN5AaWhIaNwl/AY4/Ri4EAeBHwxzBgwGxEeXDw0LAAFq7rC4YAQ0xJDMF/Qx9DoSFtoWSgcZFv0T/RD9Ff4XmleSF9oUbCesTffyeIrAzcEOS0BDcLEYsqaWRYwrTGw8GxMYIh4eFPG48OGhuTKIbYog/BH0Ogswr9EP4u+iX6J9ywT/6rSSvs/aVcs+R2B1wk9DQuHmQWmpqEBvaGiMcHhZGOzw4aG5DDPGnoN/BakQ/RH9Ev0T/lGaz1Lzox/cNcVOCs5bGA5HkxoOCYLTDg5Mklw/SEEMyQ1z7mNS2UuPKPuqsde9rArtCPhAp8kFJkQQ3xBB/iDNZpbj2UQMewPUhGmJIZosBAwYM3Ckoyv8BEPP76oVfUJ4AAAAASUVORK5CYII=;" parent="2" vertex="1">
          <mxGeometry x="394" y="-220" width="141.86" height="85" as="geometry" />
        </mxCell>
        <mxCell id="XbH_MaMN36dM_GxdqdH8-250" value="" style="sketch=0;aspect=fixed;pointerEvents=1;shadow=0;dashed=0;html=1;strokeColor=none;labelPosition=center;verticalLabelPosition=bottom;verticalAlign=top;align=center;fillColor=#00188D;shape=mxgraph.mscae.enterprise.firewall" parent="2" vertex="1">
          <mxGeometry x="-240.5" y="-74" width="50" height="44.01" as="geometry" />
        </mxCell>
        <mxCell id="XbH_MaMN36dM_GxdqdH8-251" value="" style="sketch=0;aspect=fixed;pointerEvents=1;shadow=0;dashed=0;html=1;strokeColor=none;labelPosition=center;verticalLabelPosition=bottom;verticalAlign=top;align=center;fillColor=#00188D;shape=mxgraph.mscae.enterprise.firewall" parent="2" vertex="1">
          <mxGeometry x="-192" y="-74" width="50" height="44.01" as="geometry" />
        </mxCell>
        <mxCell id="XbH_MaMN36dM_GxdqdH8-252" value="" style="sketch=0;aspect=fixed;pointerEvents=1;shadow=0;dashed=0;html=1;strokeColor=none;labelPosition=center;verticalLabelPosition=bottom;verticalAlign=top;align=center;fillColor=#00188D;shape=mxgraph.mscae.enterprise.firewall" parent="2" vertex="1">
          <mxGeometry x="-142" y="-74" width="50" height="44.01" as="geometry" />
        </mxCell>
        <mxCell id="XbH_MaMN36dM_GxdqdH8-254" value="" style="sketch=0;aspect=fixed;pointerEvents=1;shadow=0;dashed=0;html=1;strokeColor=none;labelPosition=center;verticalLabelPosition=bottom;verticalAlign=top;align=center;fillColor=#00188D;shape=mxgraph.mscae.enterprise.firewall" parent="2" vertex="1">
          <mxGeometry x="-42" y="-74" width="50" height="44.01" as="geometry" />
        </mxCell>
        <mxCell id="lYQGyrDZ05sSrZhLJFXv-217" value="" style="image;aspect=fixed;html=1;points=[];align=center;fontSize=12;image=img/lib/azure2/devops/Azure_DevOps.svg;" parent="2" vertex="1">
          <mxGeometry x="110" y="340" width="34" height="34" as="geometry" />
        </mxCell>
        <mxCell id="lYQGyrDZ05sSrZhLJFXv-218" value="" style="image;sketch=0;aspect=fixed;html=1;points=[];align=center;fontSize=12;image=img/lib/mscae/Azure_Artifacts.svg;" parent="2" vertex="1">
          <mxGeometry x="-20" y="140" width="50" height="50" as="geometry" />
        </mxCell>
        <mxCell id="lYQGyrDZ05sSrZhLJFXv-242" style="edgeStyle=orthogonalEdgeStyle;rounded=0;orthogonalLoop=1;jettySize=auto;html=1;" parent="2" source="lYQGyrDZ05sSrZhLJFXv-219" target="lYQGyrDZ05sSrZhLJFXv-220" edge="1">
          <mxGeometry relative="1" as="geometry" />
        </mxCell>
        <mxCell id="lYQGyrDZ05sSrZhLJFXv-219" value="Repositories" style="image;sketch=0;aspect=fixed;html=1;points=[];align=center;fontSize=12;image=img/lib/mscae/Azure_Repos.svg;" parent="2" vertex="1">
          <mxGeometry x="-265" y="203" width="45" height="50" as="geometry" />
        </mxCell>
        <mxCell id="lYQGyrDZ05sSrZhLJFXv-220" value="Azure Pipelines&lt;div&gt;(CI)&lt;br&gt;&lt;/div&gt;&lt;div&gt;- Build Bicep&lt;/div&gt;" style="image;sketch=0;aspect=fixed;html=1;points=[];align=center;fontSize=12;image=img/lib/mscae/Azure_Pipelines.svg;" parent="2" vertex="1">
          <mxGeometry x="-133" y="203" width="50" height="50" as="geometry" />
        </mxCell>
        <UserObject label="" tags="Background" id="lYQGyrDZ05sSrZhLJFXv-221">
          <mxCell style="vsdxID=1746;fillColor=none;gradientColor=none;shape=stencil(nZBLDsIwEENPM1sUMoILlHIBThCRQEaEpErD9/SkNUhVFyy6G9vPGsnETe9N50irvuR0cQ+xxRPvSGuJ3mUp9SJuiZtTyu6c0y1a6M5UUqvRcRad9UBrZfLxIG8Hb7viDWz0ruk+/HsiVYhe376C3gMNEifoL1wE/0EXgrP39RgXwVYSAgad5vMFq4X1uf0A);dashed=1;strokeColor=#0078d4;strokeWidth=2;points=[];labelBackgroundColor=none;rounded=1;html=1;whiteSpace=wrap;pointerEvents=0;align=center;verticalAlign=top;fontFamily=Helvetica;fontSize=12;fontColor=default;" parent="2" vertex="1">
            <mxGeometry x="-290" y="123" width="440" height="260" as="geometry" />
          </mxCell>
        </UserObject>
        <UserObject label="Azure DevOps" tags="Background" id="lYQGyrDZ05sSrZhLJFXv-222">
          <mxCell style="verticalAlign=middle;align=center;overflow=width;vsdxID=1747;shape=stencil(nZBLDoAgDERP0z3SIyjew0SURgSD+Lu9kMZoXLhwN9O+tukAlrNpJg1SzDH4QW/URgNYgZTkjA4UkwJUgGXng+6DX1zLfmoymdXo17xh5zmRJ6Q42BWCfc2oJfdAr+Yv+AP9Cb7OJ3H/2JG1HNGz/84klThPVCc=);points=[];labelBackgroundColor=none;rounded=0;html=1;whiteSpace=wrap;fontSize=16;strokeColor=none;" parent="2" vertex="1">
            <mxGeometry x="-270" y="109" width="116.5" height="25" as="geometry" />
          </mxCell>
        </UserObject>
        <mxCell id="lYQGyrDZ05sSrZhLJFXv-224" style="edgeStyle=orthogonalEdgeStyle;rounded=0;orthogonalLoop=1;jettySize=auto;html=1;" parent="2" source="lYQGyrDZ05sSrZhLJFXv-223" target="Wtejnd3A24O5zBVkF6I7-232" edge="1">
          <mxGeometry relative="1" as="geometry">
            <Array as="points">
              <mxPoint x="184" y="228" />
              <mxPoint x="184" y="230" />
            </Array>
          </mxGeometry>
        </mxCell>
        <mxCell id="lYQGyrDZ05sSrZhLJFXv-225" value="Deploy Resources" style="edgeLabel;html=1;align=center;verticalAlign=middle;resizable=0;points=[];" parent="lYQGyrDZ05sSrZhLJFXv-224" vertex="1" connectable="0">
          <mxGeometry x="0.0739" relative="1" as="geometry">
            <mxPoint x="-5" as="offset" />
          </mxGeometry>
        </mxCell>
        <mxCell id="XbH_MaMN36dM_GxdqdH8-253" value="" style="sketch=0;aspect=fixed;pointerEvents=1;shadow=0;dashed=0;html=1;strokeColor=none;labelPosition=center;verticalLabelPosition=bottom;verticalAlign=top;align=center;fillColor=#00188D;shape=mxgraph.mscae.enterprise.firewall" parent="2" vertex="1">
          <mxGeometry x="-92" y="-74" width="50" height="44.01" as="geometry" />
        </mxCell>
        <mxCell id="lYQGyrDZ05sSrZhLJFXv-245" style="edgeStyle=orthogonalEdgeStyle;rounded=0;orthogonalLoop=1;jettySize=auto;html=1;entryX=-0.013;entryY=0.419;entryDx=0;entryDy=0;entryPerimeter=0;" parent="2" source="lYQGyrDZ05sSrZhLJFXv-220" target="lYQGyrDZ05sSrZhLJFXv-218" edge="1">
          <mxGeometry relative="1" as="geometry" />
        </mxCell>
        <mxCell id="lYQGyrDZ05sSrZhLJFXv-246" value="Create&lt;br&gt;Artifact" style="edgeLabel;html=1;align=center;verticalAlign=middle;resizable=0;points=[];" parent="lYQGyrDZ05sSrZhLJFXv-245" vertex="1" connectable="0">
          <mxGeometry x="-0.0362" y="-2" relative="1" as="geometry">
            <mxPoint y="-4" as="offset" />
          </mxGeometry>
        </mxCell>
        <mxCell id="1" value="microservices-with-aks" parent="0" />
        <mxCell id="208" parent="1" vertex="1">
          <mxGeometry x="534" y="196" as="geometry" />
        </mxCell>
        <mxCell id="215" parent="1" vertex="1">
          <mxGeometry x="640" y="199" as="geometry" />
        </mxCell>
        <mxCell id="217" parent="1" vertex="1">
          <mxGeometry x="323" y="193" as="geometry" />
        </mxCell>
        <mxCell id="lYQGyrDZ05sSrZhLJFXv-223" value="Azure Pipelines&lt;div&gt;(CD)&lt;/div&gt;&lt;div&gt;- Deploy Bicep&lt;/div&gt;&lt;div&gt;- Connect Container&amp;nbsp;&lt;/div&gt;&lt;div&gt;Atom to Boomi&lt;/div&gt;" style="image;sketch=0;aspect=fixed;html=1;points=[];align=center;fontSize=12;image=img/lib/mscae/Azure_Pipelines.svg;" parent="1" vertex="1">
          <mxGeometry x="45" y="203" width="50" height="50" as="geometry" />
        </mxCell>
        <mxCell id="lYQGyrDZ05sSrZhLJFXv-229" value="" style="sketch=0;aspect=fixed;pointerEvents=1;shadow=0;dashed=0;html=1;strokeColor=none;labelPosition=center;verticalLabelPosition=bottom;verticalAlign=top;align=center;fillColor=#00188D;shape=mxgraph.mscae.enterprise.firewall" parent="1" vertex="1">
          <mxGeometry x="-340" y="-74" width="50" height="44.01" as="geometry" />
        </mxCell>
        <mxCell id="lYQGyrDZ05sSrZhLJFXv-230" value="" style="sketch=0;aspect=fixed;pointerEvents=1;shadow=0;dashed=0;html=1;strokeColor=none;labelPosition=center;verticalLabelPosition=bottom;verticalAlign=top;align=center;fillColor=#00188D;shape=mxgraph.mscae.enterprise.firewall" parent="1" vertex="1">
          <mxGeometry x="-291.5" y="-74" width="50" height="44.01" as="geometry" />
        </mxCell>
        <mxCell id="lYQGyrDZ05sSrZhLJFXv-231" value="" style="sketch=0;aspect=fixed;pointerEvents=1;shadow=0;dashed=0;html=1;strokeColor=none;labelPosition=center;verticalLabelPosition=bottom;verticalAlign=top;align=center;fillColor=#00188D;shape=mxgraph.mscae.enterprise.firewall" parent="1" vertex="1">
          <mxGeometry x="-738.5" y="-74" width="50" height="44.01" as="geometry" />
        </mxCell>
        <mxCell id="lYQGyrDZ05sSrZhLJFXv-232" value="" style="sketch=0;aspect=fixed;pointerEvents=1;shadow=0;dashed=0;html=1;strokeColor=none;labelPosition=center;verticalLabelPosition=bottom;verticalAlign=top;align=center;fillColor=#00188D;shape=mxgraph.mscae.enterprise.firewall" parent="1" vertex="1">
          <mxGeometry x="-688.5" y="-74" width="50" height="44.01" as="geometry" />
        </mxCell>
        <mxCell id="lYQGyrDZ05sSrZhLJFXv-233" value="" style="sketch=0;aspect=fixed;pointerEvents=1;shadow=0;dashed=0;html=1;strokeColor=none;labelPosition=center;verticalLabelPosition=bottom;verticalAlign=top;align=center;fillColor=#00188D;shape=mxgraph.mscae.enterprise.firewall" parent="1" vertex="1">
          <mxGeometry x="-638.5" y="-74" width="50" height="44.01" as="geometry" />
        </mxCell>
        <mxCell id="lYQGyrDZ05sSrZhLJFXv-234" value="" style="sketch=0;aspect=fixed;pointerEvents=1;shadow=0;dashed=0;html=1;strokeColor=none;labelPosition=center;verticalLabelPosition=bottom;verticalAlign=top;align=center;fillColor=#00188D;shape=mxgraph.mscae.enterprise.firewall" parent="1" vertex="1">
          <mxGeometry x="-588.5" y="-74" width="50" height="44.01" as="geometry" />
        </mxCell>
        <mxCell id="lYQGyrDZ05sSrZhLJFXv-235" value="" style="sketch=0;aspect=fixed;pointerEvents=1;shadow=0;dashed=0;html=1;strokeColor=none;labelPosition=center;verticalLabelPosition=bottom;verticalAlign=top;align=center;fillColor=#00188D;shape=mxgraph.mscae.enterprise.firewall" parent="1" vertex="1">
          <mxGeometry x="-538.5" y="-74" width="50" height="44.01" as="geometry" />
        </mxCell>
        <mxCell id="lYQGyrDZ05sSrZhLJFXv-236" value="" style="sketch=0;aspect=fixed;pointerEvents=1;shadow=0;dashed=0;html=1;strokeColor=none;labelPosition=center;verticalLabelPosition=bottom;verticalAlign=top;align=center;fillColor=#00188D;shape=mxgraph.mscae.enterprise.firewall" parent="1" vertex="1">
          <mxGeometry x="-490" y="-74" width="50" height="44.01" as="geometry" />
        </mxCell>
        <mxCell id="lYQGyrDZ05sSrZhLJFXv-237" value="" style="sketch=0;aspect=fixed;pointerEvents=1;shadow=0;dashed=0;html=1;strokeColor=none;labelPosition=center;verticalLabelPosition=bottom;verticalAlign=top;align=center;fillColor=#00188D;shape=mxgraph.mscae.enterprise.firewall" parent="1" vertex="1">
          <mxGeometry x="-440" y="-74" width="50" height="44.01" as="geometry" />
        </mxCell>
        <mxCell id="lYQGyrDZ05sSrZhLJFXv-238" value="" style="sketch=0;aspect=fixed;pointerEvents=1;shadow=0;dashed=0;html=1;strokeColor=none;labelPosition=center;verticalLabelPosition=bottom;verticalAlign=top;align=center;fillColor=#00188D;shape=mxgraph.mscae.enterprise.firewall" parent="1" vertex="1">
          <mxGeometry x="-390" y="-74" width="50" height="44.01" as="geometry" />
        </mxCell>
        <mxCell id="lYQGyrDZ05sSrZhLJFXv-243" style="edgeStyle=orthogonalEdgeStyle;rounded=0;orthogonalLoop=1;jettySize=auto;html=1;" parent="1" source="lYQGyrDZ05sSrZhLJFXv-220" target="lYQGyrDZ05sSrZhLJFXv-223" edge="1">
          <mxGeometry relative="1" as="geometry" />
        </mxCell>
        <mxCell id="lYQGyrDZ05sSrZhLJFXv-248" style="edgeStyle=orthogonalEdgeStyle;rounded=0;orthogonalLoop=1;jettySize=auto;html=1;entryX=0.983;entryY=0.51;entryDx=0;entryDy=0;entryPerimeter=0;" parent="1" source="lYQGyrDZ05sSrZhLJFXv-223" target="lYQGyrDZ05sSrZhLJFXv-218" edge="1">
          <mxGeometry relative="1" as="geometry">
            <Array as="points">
              <mxPoint x="70" y="165" />
              <mxPoint x="50" y="165" />
            </Array>
          </mxGeometry>
        </mxCell>
        <mxCell id="lYQGyrDZ05sSrZhLJFXv-249" value="Get&lt;br&gt;Artifact" style="edgeLabel;html=1;align=center;verticalAlign=middle;resizable=0;points=[];" parent="lYQGyrDZ05sSrZhLJFXv-248" vertex="1" connectable="0">
          <mxGeometry x="-0.5139" y="2" relative="1" as="geometry">
            <mxPoint as="offset" />
          </mxGeometry>
        </mxCell>
      </root>
    </mxGraphModel>
  </diagram>
</mxfile>
